<svg data-v-6805eed4="" version="1.0" xmlns="http://www.w3.org/2000/svg" xmlns:xlink="http://www.w3.org/1999/xlink" width="100%" height="100%" viewBox="0 0 340.000000 250.000000" preserveAspectRatio="xMidYMid meet" color-interpolation-filters="sRGB" style="margin: auto;"> <!----> <g data-v-6805eed4="" fill="#ff0844" class="iconlettersvg-g iconlettersvg" transform="translate(62.61785888671875,100.49503707885742)"><g><g class="tp-name" transform="translate(0,0)"><g transform="scale(1)"><g transform="translate(0, 0)"><g class="name-imagesvg"><g><rect fill="#ff0844" fill-opacity="0" stroke-width="2" x="0" y="0" width="34.860200054137685" height="34.85376572207911" class="image-rect"></rect> <svg filter="url(#colors8526378287)" x="0" y="0" width="34.860200054137685" height="34.85376572207911" filtersec="colorsb6140951142" class="image-svg-svg primary" style="overflow: visible;"><svg xmlns="http://www.w3.org/2000/svg" viewBox="0 0 54.19 54.18"><path d="M54.19 54.18h-27.1a27.09 27.09 0 0 1 0-54.18h27.1v18h-27.1a9 9 0 0 0 0 18.08h14.55v6H27.09a15 15 0 0 1 0-30.08h21.1V6h-21.1a21.09 21.09 0 0 0 0 42.18h21.1V30.09H26.92v-6h27.27z" fill="#323333"></path></svg></svg> <defs><filter id="colors8526378287"><feColorMatrix type="matrix" values="0 0 0 0 0.99609375  0 0 0 0 0.03125  0 0 0 0 0.265625  0 0 0 1 0" class="icon-fecolormatrix"></feColorMatrix></filter> <filter id="colorsf4664260338"><feColorMatrix type="matrix" values="0 0 0 0 0.99609375  0 0 0 0 0.99609375  0 0 0 0 0.99609375  0 0 0 1 0" class="icon-fecolormatrix"></feColorMatrix></filter> <filter id="colorsb6140951142"><feColorMatrix type="matrix" values="0 0 0 0 0  0 0 0 0 0  0 0 0 0 0  0 0 0 1 0" class="icon-fecolormatrix"></feColorMatrix></filter></defs></g></g></g><g transform="translate(34.860200054137685, 0)"><g class="name-imagesvg"><g><rect fill="#ff0844" fill-opacity="0" stroke-width="2" x="0" y="0" width="15.252542427209553" height="34.85376572207911" class="image-rect"></rect> <svg filter="url(#colors7609975526)" x="0" y="0" width="15.252542427209553" height="34.85376572207911" filtersec="colorsb4875715793" class="image-svg-svg primary" style="overflow: visible;"><svg xmlns="http://www.w3.org/2000/svg" viewBox="0 0 23.71 54.18"><path fill="#323333" d="M23.71 54.18H5.66V24.09h6v24.09h6.05V6H6v6.04h5.66v6H0V0h23.71v54.18z"></path></svg></svg> <defs><filter id="colors7609975526"><feColorMatrix type="matrix" values="0 0 0 0 0.99609375  0 0 0 0 0.03125  0 0 0 0 0.265625  0 0 0 1 0" class="icon-fecolormatrix"></feColorMatrix></filter> <filter id="colorsf4061055444"><feColorMatrix type="matrix" values="0 0 0 0 0.99609375  0 0 0 0 0.99609375  0 0 0 0 0.99609375  0 0 0 1 0" class="icon-fecolormatrix"></feColorMatrix></filter> <filter id="colorsb4875715793"><feColorMatrix type="matrix" values="0 0 0 0 0  0 0 0 0 0  0 0 0 0 0  0 0 0 1 0" class="icon-fecolormatrix"></feColorMatrix></filter></defs></g></g></g><g transform="translate(50.11274248134724, 0)"><g class="name-imagesvg"><g><rect fill="#ff0844" fill-opacity="0" stroke-width="2" x="0" y="0" width="39.5875495103872" height="34.85376572207911" class="image-rect"></rect> <svg filter="url(#colors2897349973)" x="0" y="0" width="39.5875495103872" height="34.85376572207911" filtersec="colorsb5709776550" class="image-svg-svg primary" style="overflow: visible;"><svg xmlns="http://www.w3.org/2000/svg" viewBox="0 0 61.56 54.18"><path fill="#323333" d="M26.4 54.19L45.93 6h6.64L32.61 54.19h6.49L61.55 0H41.89L24.35 43.26 8.97 6h6.65l8.72 21.52 3.2-8.08L19.66 0H0l22.38 54.19h4.02z"></path></svg></svg> <defs><filter id="colors2897349973"><feColorMatrix type="matrix" values="0 0 0 0 0.99609375  0 0 0 0 0.03125  0 0 0 0 0.265625  0 0 0 1 0" class="icon-fecolormatrix"></feColorMatrix></filter> <filter id="colorsf3814979006"><feColorMatrix type="matrix" values="0 0 0 0 0.99609375  0 0 0 0 0.99609375  0 0 0 0 0.99609375  0 0 0 1 0" class="icon-fecolormatrix"></feColorMatrix></filter> <filter id="colorsb5709776550"><feColorMatrix type="matrix" values="0 0 0 0 0  0 0 0 0 0  0 0 0 0 0  0 0 0 1 0" class="icon-fecolormatrix"></feColorMatrix></filter></defs></g></g></g><g transform="translate(89.70029199173445, 0)"><g class="name-imagesvg"><g><rect fill="#ff0844" fill-opacity="0" stroke-width="2" x="0" y="0" width="34.85376572207911" height="34.85376572207911" class="image-rect"></rect> <svg filter="url(#colors6836079789)" x="0" y="0" width="34.85376572207911" height="34.85376572207911" filtersec="colorsb4837880354" class="image-svg-svg primary" style="overflow: visible;"><svg xmlns="http://www.w3.org/2000/svg" viewBox="0 0 54.18 54.18"><path fill="#323333" d="M54.18 54.18H0V12.04h48.18V6H0V0h54.18v18.04H6v30.14h42.18v-6.05H12.04V24.09h29.88v6H18.04v6.04h36.14v18.05z"></path></svg></svg> <defs><filter id="colors6836079789"><feColorMatrix type="matrix" values="0 0 0 0 0.99609375  0 0 0 0 0.03125  0 0 0 0 0.265625  0 0 0 1 0" class="icon-fecolormatrix"></feColorMatrix></filter> <filter id="colorsf9842753144"><feColorMatrix type="matrix" values="0 0 0 0 0.99609375  0 0 0 0 0.99609375  0 0 0 0 0.99609375  0 0 0 1 0" class="icon-fecolormatrix"></feColorMatrix></filter> <filter id="colorsb4837880354"><feColorMatrix type="matrix" values="0 0 0 0 0  0 0 0 0 0  0 0 0 0 0  0 0 0 1 0" class="icon-fecolormatrix"></feColorMatrix></filter></defs></g></g></g><g transform="translate(124.55405771381356, 0)"><!----></g><g transform="translate(138.8716771249546, 0)"><g class="name-imagesvg"><g><rect fill="#ff0844" fill-opacity="0" stroke-width="2" x="0" y="0" width="41.03884832008206" height="34.85376572207911" class="image-rect"></rect> <svg filter="url(#colors6659747559)" x="0" y="0" width="41.03884832008206" height="34.85376572207911" filtersec="colorsb3805164479" class="image-svg-svg primary" style="overflow: visible;"><svg xmlns="http://www.w3.org/2000/svg" viewBox="0 0 63.83 54.21"><path fill="#323333" d="M59.68 0l-36.4 33.99L12.04 23.5v24.71H6V9.94l17.15 16.02 4.37-4.13L4.15 0H0v54.21h18.04v-16.9l5.24 4.89L57.83 9.94v38.27h-6.05V23.5L27.54 46.19l4.37 4.08 13.87-12.96v16.9h18.05V0h-4.15z"></path></svg></svg> <defs><filter id="colors6659747559"><feColorMatrix type="matrix" values="0 0 0 0 0.99609375  0 0 0 0 0.03125  0 0 0 0 0.265625  0 0 0 1 0" class="icon-fecolormatrix"></feColorMatrix></filter> <filter id="colorsf6048881167"><feColorMatrix type="matrix" values="0 0 0 0 0.99609375  0 0 0 0 0.99609375  0 0 0 0 0.99609375  0 0 0 1 0" class="icon-fecolormatrix"></feColorMatrix></filter> <filter id="colorsb3805164479"><feColorMatrix type="matrix" values="0 0 0 0 0  0 0 0 0 0  0 0 0 0 0  0 0 0 1 0" class="icon-fecolormatrix"></feColorMatrix></filter></defs></g></g></g><g transform="translate(179.91052544503665, 0)"><g class="name-imagesvg"><g><rect fill="#ff0844" fill-opacity="0" stroke-width="2" x="0" y="0" width="34.85376572207911" height="34.85376572207911" class="image-rect"></rect> <svg filter="url(#colors9536358190)" x="0" y="0" width="34.85376572207911" height="34.85376572207911" filtersec="colorsb922387275" class="image-svg-svg primary" style="overflow: visible;"><svg xmlns="http://www.w3.org/2000/svg" viewBox="0 0 54.18 54.18"><path fill="#323333" d="M54.18 54.18H0V12.04h48.18V6H0V0h54.18v18.04H6v30.14h42.18v-6.05H12.04V24.09h29.88v6H18.04v6.04h36.14v18.05z"></path></svg></svg> <defs><filter id="colors9536358190"><feColorMatrix type="matrix" values="0 0 0 0 0.99609375  0 0 0 0 0.03125  0 0 0 0 0.265625  0 0 0 1 0" class="icon-fecolormatrix"></feColorMatrix></filter> <filter id="colorsf3931177788"><feColorMatrix type="matrix" values="0 0 0 0 0.99609375  0 0 0 0 0.99609375  0 0 0 0 0.99609375  0 0 0 1 0" class="icon-fecolormatrix"></feColorMatrix></filter> <filter id="colorsb922387275"><feColorMatrix type="matrix" values="0 0 0 0 0  0 0 0 0 0  0 0 0 0 0  0 0 0 1 0" class="icon-fecolormatrix"></feColorMatrix></filter></defs></g></g></g></g></g></g> <g data-gra="path-slogan" fill-rule="" class="tp-slogan" fill="#ff0844" transform="translate(79.64214134216309,40.85392761230469)"><!----> <!----> <g transform="scale(1, 1)"><g transform="scale(1)"><path d="M1.08-7.87L1.08 0L2.08 0L2.08-3.12L3.49-3.12C3.92-3.12 4.32-3.17 4.67-3.27C5.03-3.37 5.34-3.52 5.59-3.72C5.85-3.92 6.05-4.17 6.19-4.48C6.33-4.78 6.40-5.14 6.40-5.56C6.40-5.99 6.33-6.35 6.19-6.65C6.05-6.94 5.85-7.18 5.60-7.36C5.35-7.54 5.04-7.67 4.68-7.75C4.32-7.83 3.92-7.87 3.49-7.87ZM3.37-3.94L2.08-3.94L2.08-7.07L3.37-7.07C4.05-7.07 4.56-6.96 4.90-6.74C5.23-6.52 5.40-6.12 5.40-5.56C5.40-5.00 5.23-4.59 4.90-4.33C4.57-4.07 4.06-3.94 3.37-3.94ZM10.74-3.20L8.38-3.20L8.75-4.40C8.89-4.84 9.03-5.28 9.16-5.72C9.28-6.15 9.41-6.60 9.53-7.06L9.58-7.06C9.70-6.60 9.83-6.15 9.96-5.72C10.09-5.28 10.22-4.84 10.37-4.40ZM10.99-2.40L11.74 0L12.80 0L10.14-7.87L9.01-7.87L6.35 0L7.37 0L8.12-2.40ZM13.94-1.72L13.34-1.02C13.69-0.66 14.10-0.38 14.57-0.17C15.04 0.04 15.55 0.14 16.10 0.14C16.52 0.14 16.89 0.09 17.22-0.03C17.55-0.15 17.83-0.31 18.06-0.51C18.29-0.71 18.47-0.95 18.59-1.22C18.72-1.50 18.78-1.79 18.78-2.10C18.78-2.39 18.74-2.64 18.65-2.86C18.57-3.08 18.46-3.27 18.31-3.44C18.17-3.60 18.00-3.75 17.80-3.87C17.60-3.99 17.38-4.10 17.16-4.20L16.04-4.68C15.88-4.74 15.73-4.81 15.58-4.89C15.42-4.97 15.28-5.05 15.16-5.15C15.03-5.25 14.93-5.37 14.85-5.50C14.77-5.63 14.74-5.80 14.74-5.99C14.74-6.35 14.87-6.63 15.14-6.83C15.41-7.04 15.76-7.14 16.20-7.14C16.57-7.14 16.90-7.07 17.19-6.94C17.48-6.81 17.75-6.63 17.99-6.40L18.53-7.04C18.25-7.33 17.91-7.57 17.51-7.75C17.11-7.93 16.67-8.02 16.20-8.02C15.84-8.02 15.51-7.96 15.21-7.86C14.91-7.76 14.65-7.61 14.43-7.42C14.21-7.23 14.04-7.01 13.91-6.76C13.79-6.50 13.73-6.22 13.73-5.93C13.73-5.64 13.78-5.39 13.87-5.17C13.97-4.95 14.09-4.76 14.24-4.60C14.40-4.44 14.57-4.30 14.76-4.19C14.95-4.08 15.14-3.98 15.32-3.90L16.45-3.41C16.64-3.32 16.81-3.24 16.97-3.16C17.13-3.08 17.27-2.99 17.38-2.89C17.50-2.79 17.59-2.67 17.66-2.53C17.73-2.39 17.76-2.22 17.76-2.02C17.76-1.63 17.62-1.32 17.33-1.09C17.04-0.85 16.64-0.73 16.12-0.73C15.71-0.73 15.31-0.82 14.93-1.00C14.55-1.18 14.22-1.42 13.94-1.72ZM20.18-1.72L19.58-1.02C19.93-0.66 20.34-0.38 20.81-0.17C21.28 0.04 21.79 0.14 22.34 0.14C22.76 0.14 23.13 0.09 23.46-0.03C23.79-0.15 24.07-0.31 24.30-0.51C24.53-0.71 24.71-0.95 24.83-1.22C24.96-1.50 25.02-1.79 25.02-2.10C25.02-2.39 24.98-2.64 24.89-2.86C24.81-3.08 24.70-3.27 24.55-3.44C24.41-3.60 24.24-3.75 24.04-3.87C23.84-3.99 23.62-4.10 23.40-4.20L22.28-4.68C22.12-4.74 21.97-4.81 21.82-4.89C21.66-4.97 21.52-5.05 21.40-5.15C21.27-5.25 21.17-5.37 21.09-5.50C21.01-5.63 20.98-5.80 20.98-5.99C20.98-6.35 21.11-6.63 21.38-6.83C21.65-7.04 22.00-7.14 22.44-7.14C22.81-7.14 23.14-7.07 23.43-6.94C23.72-6.81 23.99-6.63 24.23-6.40L24.77-7.04C24.49-7.33 24.15-7.57 23.75-7.75C23.35-7.93 22.91-8.02 22.44-8.02C22.08-8.02 21.75-7.96 21.45-7.86C21.15-7.76 20.89-7.61 20.67-7.42C20.45-7.23 20.28-7.01 20.15-6.76C20.03-6.50 19.97-6.22 19.97-5.93C19.97-5.64 20.02-5.39 20.11-5.17C20.21-4.95 20.33-4.76 20.48-4.60C20.64-4.44 20.81-4.30 21-4.19C21.19-4.08 21.38-3.98 21.56-3.90L22.69-3.41C22.88-3.32 23.05-3.24 23.21-3.16C23.37-3.08 23.51-2.99 23.62-2.89C23.74-2.79 23.83-2.67 23.90-2.53C23.97-2.39 24-2.22 24-2.02C24-1.63 23.86-1.32 23.57-1.09C23.28-0.85 22.88-0.73 22.36-0.73C21.95-0.73 21.55-0.82 21.17-1.00C20.79-1.18 20.46-1.42 20.18-1.72ZM25.76-7.87L27.43 0L28.62 0L29.78-4.74C29.85-5.04 29.91-5.34 29.98-5.63C30.05-5.93 30.12-6.22 30.18-6.53L30.23-6.53C30.29-6.22 30.35-5.93 30.41-5.63C30.47-5.34 30.54-5.04 30.61-4.74L31.80 0L33 0L34.63-7.87L33.67-7.87L32.84-3.59C32.76-3.16 32.69-2.74 32.62-2.32C32.54-1.90 32.47-1.48 32.40-1.04L32.35-1.04C32.26-1.48 32.16-1.90 32.06-2.33C31.97-2.75 31.87-3.17 31.78-3.59L30.68-7.87L29.77-7.87L28.68-3.59C28.59-3.16 28.50-2.74 28.40-2.32C28.31-1.90 28.22-1.48 28.13-1.04L28.08-1.04C28.01-1.48 27.93-1.90 27.85-2.32C27.77-2.73 27.70-3.16 27.62-3.59L26.80-7.87ZM38.83 0.14C39.33 0.14 39.78 0.05 40.19-0.14C40.61-0.34 40.96-0.61 41.26-0.97C41.56-1.32 41.79-1.75 41.96-2.26C42.12-2.77 42.20-3.34 42.20-3.97C42.20-4.60 42.12-5.16 41.96-5.66C41.79-6.16 41.56-6.58 41.26-6.93C40.96-7.28 40.61-7.55 40.19-7.73C39.78-7.92 39.33-8.02 38.83-8.02C38.34-8.02 37.88-7.92 37.47-7.74C37.06-7.56 36.70-7.29 36.41-6.94C36.11-6.59 35.88-6.17 35.72-5.67C35.55-5.17 35.47-4.60 35.47-3.97C35.47-3.34 35.55-2.77 35.72-2.26C35.88-1.75 36.11-1.32 36.41-0.97C36.70-0.61 37.06-0.34 37.47-0.14C37.88 0.05 38.34 0.14 38.83 0.14ZM38.83-0.73C38.48-0.73 38.16-0.81 37.88-0.96C37.59-1.11 37.35-1.33 37.15-1.61C36.94-1.90 36.78-2.24 36.67-2.63C36.56-3.03 36.50-3.48 36.50-3.97C36.50-4.46 36.56-4.90 36.67-5.29C36.78-5.68 36.94-6.02 37.15-6.29C37.35-6.56 37.59-6.77 37.88-6.92C38.16-7.07 38.48-7.14 38.83-7.14C39.18-7.14 39.50-7.07 39.79-6.92C40.07-6.77 40.31-6.56 40.52-6.29C40.72-6.02 40.88-5.68 40.99-5.29C41.10-4.90 41.16-4.46 41.16-3.97C41.16-3.48 41.10-3.03 40.99-2.63C40.88-2.24 40.72-1.90 40.52-1.61C40.31-1.33 40.07-1.11 39.79-0.96C39.50-0.81 39.18-0.73 38.83-0.73ZM44.89-4.14L44.89-7.07L46.21-7.07C46.83-7.07 47.30-6.96 47.63-6.76C47.96-6.55 48.12-6.18 48.12-5.66C48.12-5.15 47.96-4.77 47.63-4.52C47.30-4.27 46.83-4.14 46.21-4.14ZM48.22 0L49.34 0L47.35-3.43C47.89-3.57 48.32-3.82 48.64-4.19C48.96-4.56 49.12-5.05 49.12-5.66C49.12-6.07 49.05-6.42 48.91-6.70C48.78-6.98 48.59-7.20 48.34-7.38C48.10-7.56 47.81-7.68 47.47-7.76C47.13-7.83 46.76-7.87 46.36-7.87L43.90-7.87L43.90 0L44.89 0L44.89-3.32L46.32-3.32ZM50.87-7.87L50.87 0L52.88 0C53.48 0 54-0.09 54.46-0.27C54.91-0.45 55.30-0.71 55.61-1.05C55.92-1.39 56.16-1.81 56.32-2.30C56.48-2.79 56.56-3.35 56.56-3.97C56.56-5.23 56.24-6.19 55.61-6.86C54.98-7.54 54.05-7.87 52.84-7.87ZM52.76-0.82L51.86-0.82L51.86-7.06L52.76-7.06C53.68-7.06 54.37-6.79 54.83-6.26C55.29-5.74 55.52-4.97 55.52-3.97C55.52-2.97 55.29-2.20 54.83-1.64C54.37-1.09 53.68-0.82 52.76-0.82Z" transform="translate(-1.08, 8.016)"></path></g></g></g></g><defs v-gra="od"></defs></svg>