<svg width="503" height="17" viewBox="0 0 503 17" fill="none" xmlns="http://www.w3.org/2000/svg">
<path d="M250.088 13.168C249.388 13.168 248.763 13.014 248.212 12.706C247.671 12.3887 247.246 11.9547 246.938 11.404C246.63 10.8533 246.476 10.2187 246.476 9.5C246.476 8.78133 246.625 8.14667 246.924 7.596C247.232 7.04533 247.657 6.616 248.198 6.308C248.739 5.99067 249.36 5.832 250.06 5.832C250.76 5.832 251.381 5.99067 251.922 6.308C252.463 6.616 252.883 7.04533 253.182 7.596C253.49 8.14667 253.644 8.78133 253.644 9.5C253.644 10.2187 253.495 10.8533 253.196 11.404C252.897 11.9547 252.477 12.3887 251.936 12.706C251.395 13.014 250.779 13.168 250.088 13.168ZM250.088 11.726C250.471 11.726 250.811 11.6327 251.11 11.446C251.409 11.25 251.642 10.9887 251.81 10.662C251.978 10.326 252.062 9.93867 252.062 9.5C252.062 9.06133 251.973 8.67867 251.796 8.352C251.628 8.016 251.395 7.75467 251.096 7.568C250.797 7.372 250.452 7.274 250.06 7.274C249.668 7.274 249.323 7.36733 249.024 7.554C248.725 7.74067 248.492 8.002 248.324 8.338C248.156 8.674 248.072 9.06133 248.072 9.5C248.072 9.93867 248.156 10.326 248.324 10.662C248.501 10.9887 248.739 11.25 249.038 11.446C249.346 11.6327 249.696 11.726 250.088 11.726ZM255.899 9.276C255.899 8.52 256.043 7.89933 256.333 7.414C256.622 6.92867 256.995 6.56933 257.453 6.336C257.919 6.09333 258.405 5.972 258.909 5.972V7.47C258.479 7.47 258.073 7.53067 257.691 7.652C257.317 7.764 257.014 7.95067 256.781 8.212C256.547 8.47333 256.431 8.81867 256.431 9.248L255.899 9.276ZM254.863 13V6H256.431V13H254.863Z" fill="#E3E3E3"/>
<path d="M272 9H503" stroke="#E3E3E3"/>
<path d="M0 9H231" stroke="#E3E3E3"/>
</svg>
